# xmcd
#
# Track frame offsets: 
#        150
#        12967
#        35620
#        53923
#        73938
#        93330
#        109985
#        132123
#        145445
#        164373
#        187202
#        205405
#        227418
#
# Disc length: 3299 seconds
#
# Revision: 1
# Processed by: cddbd v1.5.2PL0 Copyright (c) Steve Scherf et al.
# Submitted via: ExactAudioCopy v0.95b4
#
DISCID=c00ce10d
DTITLE=John Proulx - Moon And Sand
DYEAR=2006
DGENRE=Jazz
TTITLE0=I've Never Been In Love Before
TTITLE1=Moon And Sand
TTITLE2=Alice In Wonderland
TTITLE3=My Love For You
TTITLE4=Do Nothin' Til You Hear From Me
TTITLE5=What A Difference A Day Makes
TTITLE6=Stuck In A Dream With Me
TTITLE7=There Is No Greater Love
TTITLE8=I Should Care
TTITLE9=So In Love
TTITLE10=East Of The Sun
TTITLE11=You'd Be So Nice To Come Home To
TTITLE12=I Can't Make You Love Me
EXTD=YEAR: 2006
EXTT0=
EXTT1=
EXTT2=
EXTT3=
EXTT4=
EXTT5=
EXTT6=
EXTT7=
EXTT8=
EXTT9=
EXTT10=
EXTT11=
EXTT12=
PLAYORDER=
